<mxfile host="65bd71144e">
    <diagram id="nxQ-FBLO75y6oR8-ZmPx" name="Page-1">
        <mxGraphModel dx="1145" dy="790" grid="0" gridSize="10" guides="1" tooltips="1" connect="1" arrows="1" fold="1" page="1" pageScale="1" pageWidth="1169" pageHeight="827" background="#212121" math="0" shadow="0">
            <root>
                <mxCell id="0"/>
                <mxCell id="1" parent="0"/>
                <mxCell id="2" value="Entity" style="whiteSpace=wrap;html=1;align=center;fontFamily=Tahoma;rounded=1;fillColor=#E8E8E8;strokeColor=#666666;fontColor=#333333;gradientColor=#ABABAB;gradientDirection=radial;fontSize=14;labelBackgroundColor=none;fontStyle=1" vertex="1" parent="1">
                    <mxGeometry x="30" y="30" width="140" height="60" as="geometry"/>
                </mxCell>
                <mxCell id="3" value="Weak Entity" style="shape=ext;margin=3;double=1;whiteSpace=wrap;html=1;align=center;rounded=1;labelBackgroundColor=none;fontFamily=Tahoma;fontSize=14;fontColor=#000000;fillColor=#E8E8E8;gradientColor=#ABABAB;gradientDirection=radial;fontStyle=1;strokeColor=#212121;strokeWidth=2;glass=0;" vertex="1" parent="1">
                    <mxGeometry x="190" y="30" width="140" height="60" as="geometry"/>
                </mxCell>
                <mxCell id="4" value="Relationship" style="shape=rhombus;perimeter=rhombusPerimeter;whiteSpace=wrap;html=1;align=center;rounded=1;labelBackgroundColor=none;fontFamily=Tahoma;fontSize=14;fontColor=#000000;strokeColor=#212121;strokeWidth=2;fillColor=#E8E8E8;gradientColor=#ABABAB;gradientDirection=radial;fontStyle=1" vertex="1" parent="1">
                    <mxGeometry x="30" y="120" width="140" height="70" as="geometry"/>
                </mxCell>
                <mxCell id="5" value="Identifying" style="shape=rhombus;double=1;perimeter=rhombusPerimeter;whiteSpace=wrap;html=1;align=center;rounded=1;labelBackgroundColor=none;fontFamily=Tahoma;fontSize=14;fontColor=#000000;strokeColor=#212121;strokeWidth=2;fillColor=#E8E8E8;gradientColor=#ABABAB;gradientDirection=radial;fontStyle=1" vertex="1" parent="1">
                    <mxGeometry x="190" y="120" width="140" height="70" as="geometry"/>
                </mxCell>
                <mxCell id="6" value="Attribute" style="ellipse;whiteSpace=wrap;html=1;align=center;rounded=1;labelBackgroundColor=none;fontFamily=Tahoma;fontSize=14;fontColor=#000000;strokeColor=#212121;strokeWidth=2;fillColor=#E8E8E8;gradientColor=#ABABAB;gradientDirection=radial;fontStyle=1" vertex="1" parent="1">
                    <mxGeometry x="50" y="220" width="100" height="40" as="geometry"/>
                </mxCell>
                <mxCell id="7" value="key" style="ellipse;whiteSpace=wrap;html=1;align=center;fontStyle=5;rounded=1;labelBackgroundColor=none;fontFamily=Tahoma;fontSize=14;fontColor=#000000;strokeColor=#212121;strokeWidth=2;fillColor=#E8E8E8;gradientColor=#ABABAB;gradientDirection=radial;" vertex="1" parent="1">
                    <mxGeometry x="210" y="220" width="100" height="40" as="geometry"/>
                </mxCell>
                <mxCell id="8" value="&lt;span style=&quot;border-bottom: 1px dotted&quot;&gt;Weak key&lt;/span&gt;" style="ellipse;whiteSpace=wrap;html=1;align=center;rounded=1;labelBackgroundColor=none;fontFamily=Tahoma;fontSize=14;fontColor=#000000;strokeColor=#212121;strokeWidth=2;fillColor=#E8E8E8;gradientColor=#ABABAB;gradientDirection=radial;fontStyle=1" vertex="1" parent="1">
                    <mxGeometry x="50" y="290" width="100" height="40" as="geometry"/>
                </mxCell>
                <mxCell id="10" value="Derived" style="ellipse;whiteSpace=wrap;html=1;align=center;dashed=1;rounded=1;labelBackgroundColor=none;fontFamily=Tahoma;fontSize=14;fontColor=#000000;strokeColor=#e8e8e8;strokeWidth=2;fillColor=#E8E8E8;gradientColor=#ABABAB;gradientDirection=radial;perimeterSpacing=0;fontStyle=1;labelBorderColor=none;shadow=0;opacity=50;" vertex="1" parent="1">
                    <mxGeometry x="210" y="290" width="100" height="40" as="geometry"/>
                </mxCell>
                <mxCell id="15" value="Note" style="shape=note;size=12;whiteSpace=wrap;html=1;rounded=1;shadow=0;glass=0;labelBackgroundColor=none;labelBorderColor=none;fontFamily=Tahoma;fontSize=14;fontColor=#000000;strokeColor=#3D3D3D;strokeWidth=1;fillColor=#E8E8E8;gradientColor=#ABABAB;gradientDirection=radial;" vertex="1" parent="1">
                    <mxGeometry x="210" y="363.5" width="100" height="100" as="geometry"/>
                </mxCell>
                <mxCell id="17" value="" style="endArrow=none;html=1;rounded=1;fontFamily=Tahoma;fontSize=14;fontColor=#000000;strokeWidth=2;sketch=0;shadow=0;" edge="1" parent="1">
                    <mxGeometry relative="1" as="geometry">
                        <mxPoint x="20" y="363.5" as="sourcePoint"/>
                        <mxPoint x="180" y="363.5" as="targetPoint"/>
                    </mxGeometry>
                </mxCell>
                <mxCell id="18" value="" style="endArrow=none;html=1;rounded=0;shadow=0;sketch=0;fontFamily=Tahoma;fontSize=14;fontColor=#E8E8E8;strokeWidth=2;" edge="1" parent="1">
                    <mxGeometry relative="1" as="geometry">
                        <mxPoint x="20" y="393.5" as="sourcePoint"/>
                        <mxPoint x="180" y="393.5" as="targetPoint"/>
                    </mxGeometry>
                </mxCell>
                <mxCell id="19" value="1" style="resizable=0;html=1;align=right;verticalAlign=bottom;rounded=1;shadow=0;glass=0;labelBackgroundColor=none;labelBorderColor=none;fontFamily=Tahoma;fontSize=14;fontColor=#E8E8E8;strokeColor=#3D3D3D;strokeWidth=1;fillColor=#E8E8E8;gradientColor=#ABABAB;gradientDirection=radial;" connectable="0" vertex="1" parent="18">
                    <mxGeometry x="1" relative="1" as="geometry"/>
                </mxCell>
                <mxCell id="20" value="" style="endArrow=none;html=1;rounded=0;shadow=0;sketch=0;fontFamily=Tahoma;fontSize=14;fontColor=#E8E8E8;strokeWidth=2;" edge="1" parent="1">
                    <mxGeometry relative="1" as="geometry">
                        <mxPoint x="20" y="423.5" as="sourcePoint"/>
                        <mxPoint x="180" y="423.5" as="targetPoint"/>
                    </mxGeometry>
                </mxCell>
                <mxCell id="21" value="N" style="resizable=0;html=1;align=right;verticalAlign=bottom;rounded=1;shadow=0;glass=0;labelBackgroundColor=none;labelBorderColor=none;fontFamily=Tahoma;fontSize=14;fontColor=#E8E8E8;strokeColor=#3D3D3D;strokeWidth=1;fillColor=#E8E8E8;gradientColor=#ABABAB;gradientDirection=radial;" connectable="0" vertex="1" parent="20">
                    <mxGeometry x="1" relative="1" as="geometry"/>
                </mxCell>
                <mxCell id="22" value="" style="endArrow=none;html=1;rounded=0;shadow=0;sketch=0;fontFamily=Tahoma;fontSize=14;fontColor=#E8E8E8;strokeWidth=2;" edge="1" parent="1">
                    <mxGeometry relative="1" as="geometry">
                        <mxPoint x="20" y="453.5" as="sourcePoint"/>
                        <mxPoint x="180" y="453.5" as="targetPoint"/>
                    </mxGeometry>
                </mxCell>
                <mxCell id="23" value="M" style="resizable=0;html=1;align=left;verticalAlign=bottom;rounded=1;shadow=0;glass=0;labelBackgroundColor=none;labelBorderColor=none;fontFamily=Tahoma;fontSize=14;fontColor=#E8E8E8;strokeColor=#3D3D3D;strokeWidth=1;fillColor=#E8E8E8;gradientColor=#ABABAB;gradientDirection=radial;" connectable="0" vertex="1" parent="22">
                    <mxGeometry x="-1" relative="1" as="geometry"/>
                </mxCell>
                <mxCell id="24" value="N" style="resizable=0;html=1;align=right;verticalAlign=bottom;rounded=1;shadow=0;glass=0;labelBackgroundColor=none;labelBorderColor=none;fontFamily=Tahoma;fontSize=14;fontColor=#E8E8E8;strokeColor=#3D3D3D;strokeWidth=1;fillColor=#E8E8E8;gradientColor=#ABABAB;gradientDirection=radial;" connectable="0" vertex="1" parent="22">
                    <mxGeometry x="1" relative="1" as="geometry"/>
                </mxCell>
                <mxCell id="27" value="" style="shape=link;html=1;rounded=0;shadow=0;sketch=0;fontFamily=Tahoma;fontSize=14;fontColor=#E8E8E8;strokeWidth=2;" edge="1" parent="1">
                    <mxGeometry relative="1" as="geometry">
                        <mxPoint x="20" y="483.5" as="sourcePoint"/>
                        <mxPoint x="180" y="483.5" as="targetPoint"/>
                    </mxGeometry>
                </mxCell>
                <mxCell id="28" value="1" style="resizable=0;html=1;align=right;verticalAlign=bottom;rounded=1;shadow=0;glass=0;labelBackgroundColor=none;labelBorderColor=none;fontFamily=Tahoma;fontSize=14;fontColor=#E8E8E8;strokeColor=#3D3D3D;strokeWidth=1;fillColor=#E8E8E8;gradientColor=#ABABAB;gradientDirection=radial;" connectable="0" vertex="1" parent="27">
                    <mxGeometry x="1" relative="1" as="geometry"/>
                </mxCell>
                <mxCell id="29" value="" style="shape=link;html=1;rounded=0;shadow=0;sketch=0;fontFamily=Tahoma;fontSize=14;fontColor=#E8E8E8;strokeWidth=2;" edge="1" parent="1">
                    <mxGeometry relative="1" as="geometry">
                        <mxPoint x="20" y="513.5" as="sourcePoint"/>
                        <mxPoint x="180" y="513.5" as="targetPoint"/>
                    </mxGeometry>
                </mxCell>
                <mxCell id="30" value="N" style="resizable=0;html=1;align=right;verticalAlign=bottom;rounded=1;shadow=0;glass=0;labelBackgroundColor=none;labelBorderColor=none;fontFamily=Tahoma;fontSize=14;fontColor=#E8E8E8;strokeColor=#3D3D3D;strokeWidth=1;fillColor=#E8E8E8;gradientColor=#ABABAB;gradientDirection=radial;" connectable="0" vertex="1" parent="29">
                    <mxGeometry x="1" relative="1" as="geometry"/>
                </mxCell>
                <mxCell id="31" value="" style="shape=link;html=1;rounded=0;shadow=0;sketch=0;fontFamily=Tahoma;fontSize=14;fontColor=#E8E8E8;strokeWidth=2;" edge="1" parent="1">
                    <mxGeometry relative="1" as="geometry">
                        <mxPoint x="20" y="543.5" as="sourcePoint"/>
                        <mxPoint x="180" y="543.5" as="targetPoint"/>
                    </mxGeometry>
                </mxCell>
                <mxCell id="32" value="M" style="resizable=0;html=1;align=left;verticalAlign=bottom;rounded=1;shadow=0;glass=0;labelBackgroundColor=none;labelBorderColor=none;fontFamily=Tahoma;fontSize=14;fontColor=#E8E8E8;strokeColor=#3D3D3D;strokeWidth=1;fillColor=#E8E8E8;gradientColor=#ABABAB;gradientDirection=radial;" connectable="0" vertex="1" parent="31">
                    <mxGeometry x="-1" relative="1" as="geometry"/>
                </mxCell>
                <mxCell id="33" value="N" style="resizable=0;html=1;align=right;verticalAlign=bottom;rounded=1;shadow=0;glass=0;labelBackgroundColor=none;labelBorderColor=none;fontFamily=Tahoma;fontSize=14;fontColor=#E8E8E8;strokeColor=#3D3D3D;strokeWidth=1;fillColor=#E8E8E8;gradientColor=#ABABAB;gradientDirection=radial;" connectable="0" vertex="1" parent="31">
                    <mxGeometry x="1" relative="1" as="geometry"/>
                </mxCell>
                <mxCell id="36" value="" style="group" vertex="1" connectable="0" parent="1">
                    <mxGeometry x="20" y="573" width="160" as="geometry"/>
                </mxCell>
                <mxCell id="34" value="" style="endArrow=halfCircle;html=1;rounded=1;fontFamily=Tahoma;fontSize=14;fontColor=#000000;strokeWidth=2;sketch=0;shadow=0;endFill=0;" edge="1" parent="36">
                    <mxGeometry relative="1" as="geometry">
                        <mxPoint as="sourcePoint"/>
                        <mxPoint x="81" as="targetPoint"/>
                    </mxGeometry>
                </mxCell>
                <mxCell id="35" value="" style="endArrow=none;html=1;rounded=1;fontFamily=Tahoma;fontSize=14;fontColor=#000000;strokeWidth=2;sketch=0;shadow=0;" edge="1" parent="36">
                    <mxGeometry relative="1" as="geometry">
                        <mxPoint x="62" as="sourcePoint"/>
                        <mxPoint x="160" as="targetPoint"/>
                    </mxGeometry>
                </mxCell>
            </root>
        </mxGraphModel>
    </diagram>
</mxfile>